<mxfile host="app.diagrams.net" modified="2023-12-16T17:19:00.288Z" agent="Mozilla/5.0 (Windows NT 10.0; Win64; x64; rv:120.0) Gecko/20100101 Firefox/120.0" etag="-E82ck9VK4Vrko6yKSSz" version="22.1.11" type="github">
  <diagram id="9Jhxt2M1604z10Gk7L1L" name="Page-1">
    <mxGraphModel dx="1595" dy="461" grid="1" gridSize="10" guides="1" tooltips="1" connect="1" arrows="1" fold="1" page="1" pageScale="1" pageWidth="850" pageHeight="1100" math="0" shadow="0">
      <root>
        <mxCell id="0" />
        <mxCell id="1" parent="0" />
        <mxCell id="VWep6eW0SsQqPGRcLZ1D-213" value="&lt;font style=&quot;font-size: 32px;&quot;&gt;ESP32-C3-DevKitC-02&lt;/font&gt;" style="rounded=0;whiteSpace=wrap;html=1;rotation=-90;" vertex="1" parent="1">
          <mxGeometry x="-80" y="220" width="400" height="240" as="geometry" />
        </mxCell>
        <mxCell id="VWep6eW0SsQqPGRcLZ1D-214" value="&lt;div&gt;&lt;font style=&quot;font-size: 32px;&quot;&gt;Raspberry Pi&lt;/font&gt;&lt;/div&gt;" style="rounded=0;whiteSpace=wrap;html=1;" vertex="1" parent="1">
          <mxGeometry x="1280" y="40" width="360" height="600" as="geometry" />
        </mxCell>
        <mxCell id="VWep6eW0SsQqPGRcLZ1D-215" value="&lt;font style=&quot;font-size: 32px;&quot;&gt;MCP2515&lt;/font&gt;" style="rounded=0;whiteSpace=wrap;html=1;" vertex="1" parent="1">
          <mxGeometry x="840" y="260" width="280" height="200" as="geometry" />
        </mxCell>
        <mxCell id="VWep6eW0SsQqPGRcLZ1D-216" value="&lt;font style=&quot;font-size: 32px;&quot;&gt;TJA1050&lt;/font&gt;" style="rounded=0;whiteSpace=wrap;html=1;" vertex="1" parent="1">
          <mxGeometry x="400" y="300" width="240" height="120" as="geometry" />
        </mxCell>
        <mxCell id="VWep6eW0SsQqPGRcLZ1D-219" value="&lt;div style=&quot;font-size: 32px;&quot;&gt;&lt;font style=&quot;font-size: 32px;&quot;&gt;GPIO&lt;/font&gt;&lt;/div&gt;" style="rounded=0;whiteSpace=wrap;html=1;rotation=-90;" vertex="1" parent="1">
          <mxGeometry x="1092.5" y="227.5" width="430" height="55" as="geometry" />
        </mxCell>
        <mxCell id="VWep6eW0SsQqPGRcLZ1D-220" value="" style="rounded=0;whiteSpace=wrap;html=1;" vertex="1" parent="1">
          <mxGeometry y="140" width="30" height="400" as="geometry" />
        </mxCell>
        <mxCell id="VWep6eW0SsQqPGRcLZ1D-221" value="" style="rounded=0;whiteSpace=wrap;html=1;" vertex="1" parent="1">
          <mxGeometry x="210" y="140" width="30" height="400" as="geometry" />
        </mxCell>
        <mxCell id="VWep6eW0SsQqPGRcLZ1D-222" value="&lt;font style=&quot;font-size: 32px;&quot;&gt;Affichage &lt;/font&gt;" style="rounded=1;whiteSpace=wrap;html=1;" vertex="1" parent="1">
          <mxGeometry x="790" y="730" width="680" height="300" as="geometry" />
        </mxCell>
        <mxCell id="VWep6eW0SsQqPGRcLZ1D-228" value="" style="endArrow=classic;html=1;rounded=0;entryX=-0.005;entryY=0.921;entryDx=0;entryDy=0;entryPerimeter=0;exitX=0.993;exitY=0.724;exitDx=0;exitDy=0;exitPerimeter=0;" edge="1" parent="1" source="VWep6eW0SsQqPGRcLZ1D-221" target="VWep6eW0SsQqPGRcLZ1D-216">
          <mxGeometry relative="1" as="geometry">
            <mxPoint x="280" y="420" as="sourcePoint" />
            <mxPoint x="380" y="420" as="targetPoint" />
            <Array as="points">
              <mxPoint x="370" y="430" />
              <mxPoint x="370" y="410" />
            </Array>
          </mxGeometry>
        </mxCell>
        <mxCell id="VWep6eW0SsQqPGRcLZ1D-229" value="&lt;div&gt;Tx&lt;/div&gt;" style="edgeLabel;resizable=0;html=1;align=center;verticalAlign=middle;" connectable="0" vertex="1" parent="VWep6eW0SsQqPGRcLZ1D-228">
          <mxGeometry relative="1" as="geometry">
            <mxPoint x="-59" y="-10" as="offset" />
          </mxGeometry>
        </mxCell>
        <mxCell id="VWep6eW0SsQqPGRcLZ1D-230" value="" style="endArrow=classic;html=1;rounded=0;entryX=-0.005;entryY=0.921;entryDx=0;entryDy=0;entryPerimeter=0;exitX=0.993;exitY=0.724;exitDx=0;exitDy=0;exitPerimeter=0;" edge="1" parent="1">
          <mxGeometry relative="1" as="geometry">
            <mxPoint x="241" y="390" as="sourcePoint" />
            <mxPoint x="400" y="371" as="targetPoint" />
            <Array as="points">
              <mxPoint x="371" y="390" />
              <mxPoint x="371" y="370" />
            </Array>
          </mxGeometry>
        </mxCell>
        <mxCell id="VWep6eW0SsQqPGRcLZ1D-231" value="GND" style="edgeLabel;resizable=0;html=1;align=center;verticalAlign=middle;" connectable="0" vertex="1" parent="VWep6eW0SsQqPGRcLZ1D-230">
          <mxGeometry relative="1" as="geometry">
            <mxPoint x="-40" y="-10" as="offset" />
          </mxGeometry>
        </mxCell>
        <mxCell id="VWep6eW0SsQqPGRcLZ1D-232" value="" style="endArrow=classic;html=1;rounded=0;entryX=-0.005;entryY=0.921;entryDx=0;entryDy=0;entryPerimeter=0;exitX=0.993;exitY=0.724;exitDx=0;exitDy=0;exitPerimeter=0;" edge="1" parent="1">
          <mxGeometry relative="1" as="geometry">
            <mxPoint x="240" y="360" as="sourcePoint" />
            <mxPoint x="399" y="341" as="targetPoint" />
            <Array as="points">
              <mxPoint x="370" y="360" />
              <mxPoint x="370" y="340" />
            </Array>
          </mxGeometry>
        </mxCell>
        <mxCell id="VWep6eW0SsQqPGRcLZ1D-233" value="Vcc" style="edgeLabel;resizable=0;html=1;align=center;verticalAlign=middle;" connectable="0" vertex="1" parent="VWep6eW0SsQqPGRcLZ1D-232">
          <mxGeometry relative="1" as="geometry">
            <mxPoint x="-9" y="-10" as="offset" />
          </mxGeometry>
        </mxCell>
        <mxCell id="VWep6eW0SsQqPGRcLZ1D-234" value="" style="endArrow=classic;html=1;rounded=0;entryX=-0.005;entryY=0.921;entryDx=0;entryDy=0;entryPerimeter=0;exitX=0.993;exitY=0.724;exitDx=0;exitDy=0;exitPerimeter=0;" edge="1" parent="1">
          <mxGeometry relative="1" as="geometry">
            <mxPoint x="240" y="330" as="sourcePoint" />
            <mxPoint x="399" y="311" as="targetPoint" />
            <Array as="points">
              <mxPoint x="370" y="330" />
              <mxPoint x="370" y="310" />
            </Array>
          </mxGeometry>
        </mxCell>
        <mxCell id="VWep6eW0SsQqPGRcLZ1D-235" value="&lt;div&gt;Rx&lt;/div&gt;" style="edgeLabel;resizable=0;html=1;align=center;verticalAlign=middle;" connectable="0" vertex="1" parent="VWep6eW0SsQqPGRcLZ1D-234">
          <mxGeometry relative="1" as="geometry">
            <mxPoint x="21" y="-10" as="offset" />
          </mxGeometry>
        </mxCell>
        <mxCell id="VWep6eW0SsQqPGRcLZ1D-236" value="&lt;div style=&quot;font-size: 20px;&quot;&gt;&lt;font style=&quot;font-size: 20px;&quot;&gt;connecteur&lt;/font&gt;&lt;/div&gt;" style="rounded=0;whiteSpace=wrap;html=1;rotation=90;" vertex="1" parent="1">
          <mxGeometry x="355" y="345" width="120" height="30" as="geometry" />
        </mxCell>
        <mxCell id="VWep6eW0SsQqPGRcLZ1D-237" value="" style="rounded=0;whiteSpace=wrap;html=1;" vertex="1" parent="1">
          <mxGeometry x="600" y="320" width="40" height="80" as="geometry" />
        </mxCell>
        <mxCell id="VWep6eW0SsQqPGRcLZ1D-238" value="" style="rounded=0;whiteSpace=wrap;html=1;" vertex="1" parent="1">
          <mxGeometry x="840" y="320" width="40" height="80" as="geometry" />
        </mxCell>
        <mxCell id="VWep6eW0SsQqPGRcLZ1D-239" value="&lt;font style=&quot;font-size: 20px;&quot;&gt;Connecteur SPI&lt;/font&gt;" style="rounded=0;whiteSpace=wrap;html=1;rotation=-90;" vertex="1" parent="1">
          <mxGeometry x="1000" y="340" width="200" height="40" as="geometry" />
        </mxCell>
        <mxCell id="VWep6eW0SsQqPGRcLZ1D-240" value="" style="endArrow=classic;html=1;rounded=0;entryX=0;entryY=0.25;entryDx=0;entryDy=0;exitX=1;exitY=0.25;exitDx=0;exitDy=0;" edge="1" parent="1" source="VWep6eW0SsQqPGRcLZ1D-237" target="VWep6eW0SsQqPGRcLZ1D-238">
          <mxGeometry relative="1" as="geometry">
            <mxPoint x="660" y="340" as="sourcePoint" />
            <mxPoint x="990" y="530" as="targetPoint" />
            <Array as="points">
              <mxPoint x="730" y="340" />
              <mxPoint x="780" y="340" />
            </Array>
          </mxGeometry>
        </mxCell>
        <mxCell id="VWep6eW0SsQqPGRcLZ1D-241" value="CAN HIGH" style="edgeLabel;resizable=0;html=1;align=center;verticalAlign=middle;" connectable="0" vertex="1" parent="VWep6eW0SsQqPGRcLZ1D-240">
          <mxGeometry relative="1" as="geometry">
            <mxPoint y="-10" as="offset" />
          </mxGeometry>
        </mxCell>
        <mxCell id="VWep6eW0SsQqPGRcLZ1D-242" value="" style="endArrow=classic;html=1;rounded=0;exitX=1;exitY=0.75;exitDx=0;exitDy=0;entryX=0;entryY=0.75;entryDx=0;entryDy=0;" edge="1" parent="1" source="VWep6eW0SsQqPGRcLZ1D-237" target="VWep6eW0SsQqPGRcLZ1D-238">
          <mxGeometry relative="1" as="geometry">
            <mxPoint x="680" y="440" as="sourcePoint" />
            <mxPoint x="780" y="440" as="targetPoint" />
          </mxGeometry>
        </mxCell>
        <mxCell id="VWep6eW0SsQqPGRcLZ1D-243" value="CAN LOW" style="edgeLabel;resizable=0;html=1;align=center;verticalAlign=middle;" connectable="0" vertex="1" parent="VWep6eW0SsQqPGRcLZ1D-242">
          <mxGeometry relative="1" as="geometry">
            <mxPoint y="10" as="offset" />
          </mxGeometry>
        </mxCell>
        <mxCell id="VWep6eW0SsQqPGRcLZ1D-245" value="" style="endArrow=none;dashed=1;html=1;rounded=0;fillColor=#e1d5e7;strokeColor=#ff0000;" edge="1" parent="1">
          <mxGeometry width="50" height="50" relative="1" as="geometry">
            <mxPoint x="-20" y="600" as="sourcePoint" />
            <mxPoint x="700" as="targetPoint" />
            <Array as="points">
              <mxPoint x="700" y="600" />
            </Array>
          </mxGeometry>
        </mxCell>
        <mxCell id="VWep6eW0SsQqPGRcLZ1D-246" value="" style="endArrow=none;dashed=1;html=1;rounded=0;strokeColor=#ff0000;" edge="1" parent="1">
          <mxGeometry width="50" height="50" relative="1" as="geometry">
            <mxPoint x="-20" y="600" as="sourcePoint" />
            <mxPoint x="700" as="targetPoint" />
            <Array as="points">
              <mxPoint x="-20" />
            </Array>
          </mxGeometry>
        </mxCell>
        <mxCell id="VWep6eW0SsQqPGRcLZ1D-248" value="&lt;font style=&quot;font-size: 25px;&quot;&gt;Projet de l&#39;autre équipe&lt;/font&gt;" style="text;html=1;strokeColor=none;fillColor=none;align=center;verticalAlign=middle;whiteSpace=wrap;rounded=0;" vertex="1" parent="1">
          <mxGeometry x="430" y="10" width="270" height="70" as="geometry" />
        </mxCell>
        <mxCell id="VWep6eW0SsQqPGRcLZ1D-249" value="" style="endArrow=classic;html=1;rounded=0;exitX=0.137;exitY=-0.009;exitDx=0;exitDy=0;exitPerimeter=0;entryX=0.25;entryY=1;entryDx=0;entryDy=0;" edge="1" parent="1">
          <mxGeometry relative="1" as="geometry">
            <mxPoint x="1280.0049999999997" y="451.0899999999998" as="sourcePoint" />
            <mxPoint x="1120.5" y="450" as="targetPoint" />
          </mxGeometry>
        </mxCell>
        <mxCell id="VWep6eW0SsQqPGRcLZ1D-250" value="5V" style="edgeLabel;resizable=0;html=1;align=center;verticalAlign=middle;" connectable="0" vertex="1" parent="VWep6eW0SsQqPGRcLZ1D-249">
          <mxGeometry relative="1" as="geometry" />
        </mxCell>
        <mxCell id="VWep6eW0SsQqPGRcLZ1D-251" value="" style="endArrow=classic;html=1;rounded=0;exitX=0.137;exitY=-0.009;exitDx=0;exitDy=0;exitPerimeter=0;entryX=0.25;entryY=1;entryDx=0;entryDy=0;" edge="1" parent="1">
          <mxGeometry relative="1" as="geometry">
            <mxPoint x="1280.0049999999997" y="319.9999999999998" as="sourcePoint" />
            <mxPoint x="1120.5" y="318.90999999999997" as="targetPoint" />
          </mxGeometry>
        </mxCell>
        <mxCell id="VWep6eW0SsQqPGRcLZ1D-252" value="CHIP SELECT (GPIO 8)" style="edgeLabel;resizable=0;html=1;align=center;verticalAlign=middle;" connectable="0" vertex="1" parent="VWep6eW0SsQqPGRcLZ1D-251">
          <mxGeometry relative="1" as="geometry">
            <mxPoint as="offset" />
          </mxGeometry>
        </mxCell>
        <mxCell id="VWep6eW0SsQqPGRcLZ1D-255" value="&lt;div&gt;MOSI (GPIO 10)&lt;/div&gt;" style="endArrow=classic;html=1;rounded=0;exitX=0.137;exitY=-0.009;exitDx=0;exitDy=0;exitPerimeter=0;entryX=0.25;entryY=1;entryDx=0;entryDy=0;" edge="1" parent="1">
          <mxGeometry relative="1" as="geometry">
            <mxPoint x="1280.0049999999997" y="283.5899999999998" as="sourcePoint" />
            <mxPoint x="1120.5" y="282.5" as="targetPoint" />
          </mxGeometry>
        </mxCell>
        <mxCell id="VWep6eW0SsQqPGRcLZ1D-257" value="" style="endArrow=classic;html=1;rounded=0;exitX=0.137;exitY=-0.009;exitDx=0;exitDy=0;exitPerimeter=0;entryX=0.25;entryY=1;entryDx=0;entryDy=0;" edge="1" parent="1">
          <mxGeometry relative="1" as="geometry">
            <mxPoint x="1279.5049999999997" y="339.9999999999998" as="sourcePoint" />
            <mxPoint x="1120" y="338.90999999999997" as="targetPoint" />
          </mxGeometry>
        </mxCell>
        <mxCell id="VWep6eW0SsQqPGRcLZ1D-258" value="CLOCK (GPIO 11)" style="edgeLabel;resizable=0;html=1;align=center;verticalAlign=middle;" connectable="0" vertex="1" parent="VWep6eW0SsQqPGRcLZ1D-257">
          <mxGeometry relative="1" as="geometry" />
        </mxCell>
        <mxCell id="VWep6eW0SsQqPGRcLZ1D-259" value="" style="endArrow=classic;html=1;rounded=0;exitX=0.137;exitY=-0.009;exitDx=0;exitDy=0;exitPerimeter=0;entryX=0.25;entryY=1;entryDx=0;entryDy=0;" edge="1" parent="1">
          <mxGeometry relative="1" as="geometry">
            <mxPoint x="1280.0049999999997" y="360.54999999999984" as="sourcePoint" />
            <mxPoint x="1120.5" y="359.46000000000004" as="targetPoint" />
          </mxGeometry>
        </mxCell>
        <mxCell id="VWep6eW0SsQqPGRcLZ1D-260" value="INTERRUPT(GPIO 25)" style="edgeLabel;resizable=0;html=1;align=center;verticalAlign=middle;" connectable="0" vertex="1" parent="VWep6eW0SsQqPGRcLZ1D-259">
          <mxGeometry relative="1" as="geometry" />
        </mxCell>
        <mxCell id="VWep6eW0SsQqPGRcLZ1D-261" value="" style="endArrow=classic;html=1;rounded=0;entryX=0.394;entryY=0.007;entryDx=0;entryDy=0;entryPerimeter=0;" edge="1" parent="1" target="VWep6eW0SsQqPGRcLZ1D-219">
          <mxGeometry relative="1" as="geometry">
            <mxPoint x="1120" y="300" as="sourcePoint" />
            <mxPoint x="1270" y="300" as="targetPoint" />
          </mxGeometry>
        </mxCell>
        <mxCell id="VWep6eW0SsQqPGRcLZ1D-262" value="&lt;div&gt;MISO (GPIO 9)&lt;/div&gt;" style="edgeLabel;resizable=0;html=1;align=center;verticalAlign=middle;" connectable="0" vertex="1" parent="VWep6eW0SsQqPGRcLZ1D-261">
          <mxGeometry relative="1" as="geometry">
            <mxPoint as="offset" />
          </mxGeometry>
        </mxCell>
        <mxCell id="VWep6eW0SsQqPGRcLZ1D-265" value="" style="endArrow=classic;html=1;rounded=0;exitX=0.137;exitY=-0.009;exitDx=0;exitDy=0;exitPerimeter=0;entryX=0.25;entryY=1;entryDx=0;entryDy=0;" edge="1" parent="1">
          <mxGeometry relative="1" as="geometry">
            <mxPoint x="1280.0049999999997" y="431.0899999999998" as="sourcePoint" />
            <mxPoint x="1120.5" y="430" as="targetPoint" />
          </mxGeometry>
        </mxCell>
        <mxCell id="VWep6eW0SsQqPGRcLZ1D-266" value="5V" style="edgeLabel;resizable=0;html=1;align=center;verticalAlign=middle;" connectable="0" vertex="1" parent="VWep6eW0SsQqPGRcLZ1D-265">
          <mxGeometry relative="1" as="geometry" />
        </mxCell>
        <mxCell id="VWep6eW0SsQqPGRcLZ1D-267" value="&lt;div&gt;GND&lt;/div&gt;" style="edgeLabel;html=1;align=center;verticalAlign=middle;resizable=0;points=[];" vertex="1" connectable="0" parent="VWep6eW0SsQqPGRcLZ1D-265">
          <mxGeometry x="-0.0223" y="-2" relative="1" as="geometry">
            <mxPoint as="offset" />
          </mxGeometry>
        </mxCell>
        <mxCell id="VWep6eW0SsQqPGRcLZ1D-269" value="" style="shape=flexArrow;endArrow=classic;html=1;rounded=0;exitX=1.006;exitY=0.7;exitDx=0;exitDy=0;exitPerimeter=0;entryX=1;entryY=0.5;entryDx=0;entryDy=0;" edge="1" parent="1" source="VWep6eW0SsQqPGRcLZ1D-214" target="VWep6eW0SsQqPGRcLZ1D-222">
          <mxGeometry width="50" height="50" relative="1" as="geometry">
            <mxPoint x="1700" y="460" as="sourcePoint" />
            <mxPoint x="1590" y="870" as="targetPoint" />
            <Array as="points">
              <mxPoint x="1730" y="460" />
              <mxPoint x="1730" y="880" />
            </Array>
          </mxGeometry>
        </mxCell>
        <mxCell id="VWep6eW0SsQqPGRcLZ1D-270" value="&lt;font style=&quot;font-size: 32px;&quot;&gt;HDMI&lt;/font&gt;" style="text;html=1;strokeColor=none;fillColor=none;align=center;verticalAlign=middle;whiteSpace=wrap;rounded=0;" vertex="1" parent="1">
          <mxGeometry x="1570" y="840" width="60" height="30" as="geometry" />
        </mxCell>
        <mxCell id="VWep6eW0SsQqPGRcLZ1D-272" value="" style="endArrow=classic;html=1;rounded=0;" edge="1" parent="1">
          <mxGeometry relative="1" as="geometry">
            <mxPoint x="1150" y="450" as="sourcePoint" />
            <mxPoint x="1050" y="560" as="targetPoint" />
            <Array as="points">
              <mxPoint x="1150" y="560" />
            </Array>
          </mxGeometry>
        </mxCell>
        <mxCell id="VWep6eW0SsQqPGRcLZ1D-273" value="Label" style="edgeLabel;resizable=0;html=1;align=center;verticalAlign=middle;" connectable="0" vertex="1" parent="VWep6eW0SsQqPGRcLZ1D-272">
          <mxGeometry relative="1" as="geometry">
            <mxPoint y="-35" as="offset" />
          </mxGeometry>
        </mxCell>
        <mxCell id="VWep6eW0SsQqPGRcLZ1D-274" value="" style="endArrow=classic;html=1;rounded=0;" edge="1" parent="1">
          <mxGeometry relative="1" as="geometry">
            <mxPoint x="1180" y="430" as="sourcePoint" />
            <mxPoint x="1050" y="590" as="targetPoint" />
            <Array as="points">
              <mxPoint x="1180" y="590" />
            </Array>
          </mxGeometry>
        </mxCell>
        <mxCell id="VWep6eW0SsQqPGRcLZ1D-275" value="Label" style="edgeLabel;resizable=0;html=1;align=center;verticalAlign=middle;" connectable="0" vertex="1" parent="VWep6eW0SsQqPGRcLZ1D-274">
          <mxGeometry relative="1" as="geometry">
            <mxPoint y="-25" as="offset" />
          </mxGeometry>
        </mxCell>
      </root>
    </mxGraphModel>
  </diagram>
</mxfile>
